<svg xmlns="http://www.w3.org/2000/svg" width="500" height="200" version="1.1"><path fill="#fff" d="M66.92,115.76c0,9.6-3.28,16.8-8.72,21.44c-4.96,4.16-11.92,6-19.84,6l-15.28,0c-1.6,0-2.32-0.4-2.32-2.24l0-50.72c0-1.68,0.48-2.4,2.48-2.4l11.52,0c9.2,0,15.44,1.04,20.72,4.08c7.2,4.16,11.44,12,11.44,23.84z M55.88,115.68c0-7.28-2.16-12.8-6.24-15.84c-3.28-2.4-7.52-3.28-12.64-3.28l-5.84,0l0,38l6.16,0c5.52,0,10.16-0.88,13.52-4.24c3.2-3.2,5.04-8,5.04-14.64z M90.96,94.24c0,3.12-2.72,5.04-5.36,5.04s-5.44-1.76-5.44-4.96s2.64-5.12,5.44-5.12c2.72,0,5.36,1.84,5.36,5.04z M90.48,141.2c0,1.44-0.64,2-2,2l-5.6,0c-1.44,0-2.08-0.56-2.08-2l0-34.96c0-1.36,0.8-1.84,2.08-1.84l5.6,0c1.28,0,2,0.4,2,1.84l0,34.96z M142.36,123.84c0,11.04-5.68,20.32-17.6,20.32c-3.6,0-7.92-2.08-10.16-4.56l-0.32,2.64c-0.08,0.72-0.72,0.96-1.76,0.96l-4.8,0c-1.36,0-1.92-0.64-1.92-2l0-52.16c0-1.28,0.32-2,1.6-2.16l5.92-0.8c0.32-0.08,0.56-0.08,0.8-0.08c0.8,0,1.36,0.32,1.36,1.6l0,19.68c2.56-2.24,6.4-3.92,10.56-3.92c4.4,0,7.68,1.44,10.24,3.76c4.24,3.76,6.08,10,6.08,16.72z M132.36,123.92c0-6.48-2-12.4-8.64-12.4c-2.96,0-6.08,1.6-8.24,3.6l0,17.12c1.92,2.16,4.88,3.92,7.84,3.92c6.96,0,9.04-6,9.04-12.24z M192.64,141.68c0,0.96-0.64,1.52-1.6,1.52l-3.84,0c-4.16,0-6-2-6.56-4.72l-0.16,0c-2,2.96-7.2,5.68-11.6,5.68c-11.28,0-16.4-9.28-16.4-19.68c0-13.84,8.32-21.12,17.28-21.12c4.24,0,8.24,1.92,10.24,4.64l0.16-2.16c0.08-0.88,0.72-1.44,1.68-1.44l5.6,0c1.04,0,1.68,0.56,1.68,1.76l0,27.76c0,1.12,0.16,1.92,0.48,2.32c0.24,0.24,0.56,0.32,0.96,0.32l0.64,0c0.96,0,1.44,0.32,1.44,1.36l0,3.76z M179.44,130.8l0-15.44c-1.6-2.32-4.88-4.08-7.92-4.08c-4.88,0-9.04,4.16-9.04,12.56c0,6.72,2.56,12.4,8.48,12.4c3.92,0,7.28-2.96,8.48-5.44z M239.16,141.12c0,1.36-0.48,2.08-1.92,2.08l-5.76,0c-1.44,0-1.92-0.72-1.92-2.08l0-21.76c0-4.4-1.2-7.52-6.08-7.52c-3.12,0-6.96,1.68-9.44,3.84l0,25.52c0,1.36-0.56,2-1.92,2l-5.84,0c-1.2,0-1.92-0.64-1.92-1.92l0-34.88c0-1.28,0.56-2,2-2l5.2,0c1.12,0,1.84,0.32,1.92,1.52l0.08,2.08c3.68-2.96,8.32-4.64,12.96-4.64c8.96,0,12.64,5.6,12.64,14.32l0,23.44z M278.16,140.8c0,0.8-0.4,1.2-1.2,1.52c-2.48,1.04-5.76,1.84-8.96,1.84c-4.08,0-7.6-1.04-9.6-3.36c-2.48-2.8-2.56-6.08-2.56-11.92l0-17.84l-3.76,0c-1.52,0-1.76-0.32-1.76-2l0-3.04c0-0.96,0.48-1.6,1.44-1.6l4.08,0l0-8.72c0-1.36,0.72-1.76,2-1.92l5.76-0.72l0.4,0c1.04,0,1.52,0.56,1.52,1.76l0,9.6l9.04,0c0.96,0,1.52,0.32,1.52,1.36l0,3.76c0,0.96-0.64,1.52-1.6,1.52l-8.96,0l0,18.32c0,2.4,0.16,4.16,1.04,5.44c0.72,1.04,1.84,1.68,3.76,1.68c2,0,3.68-0.48,5.12-0.96c0.32-0.08,0.56-0.16,0.8-0.16c0.56,0,0.88,0.32,1.04,0.96l0.8,4c0.08,0.24,0.08,0.32,0.08,0.48z M323.64,140.96c0,1.68-0.48,2.24-2.08,2.24l-5.12,0c-1.04,0-1.84-0.56-1.92-1.6l-0.08-2c-3.68,2.96-8.08,4.56-12.72,4.56c-8.96,0-12.64-5.68-12.64-14.32l0-23.6c0-1.36,0.8-1.84,2.08-1.84l5.6,0c1.28,0,2,0.4,2,1.84l0,21.92c0,4.4,1.12,7.44,5.92,7.44c3.04,0,6.88-1.68,9.28-3.84l0-25.52c0-1.36,0.72-1.84,2-1.84l5.68,0c1.28,0,2,0.4,2,1.84l0,34.72z M349.2,94.24c0,3.12-2.72,5.04-5.36,5.04s-5.44-1.76-5.44-4.96s2.64-5.12,5.44-5.12c2.72,0,5.36,1.84,5.36,5.04z M348.72,141.2c0,1.44-0.64,2-2,2l-5.6,0c-1.44,0-2.08-0.56-2.08-2l0-34.96c0-1.36,0.8-1.84,2.08-1.84l5.6,0c1.28,0,2,0.4,2,1.84l0,34.96z M398.84,141.12c0,1.36-0.48,2.08-1.92,2.08l-5.76,0c-1.44,0-1.92-0.72-1.92-2.08l0-21.76c0-4.4-1.2-7.52-6.08-7.52c-3.12,0-6.96,1.68-9.44,3.84l0,25.52c0,1.36-0.56,2-1.92,2l-5.84,0c-1.2,0-1.92-0.64-1.92-1.92l0-34.88c0-1.28,0.56-2,2-2l5.2,0c1.12,0,1.84,0.32,1.92,1.52l0.08,2.08c3.68-2.96,8.32-4.64,12.96-4.64c8.96,0,12.64,5.6,12.64,14.32l0,23.44z M423.52,138.88c0,3.28-2.96,5.36-5.68,5.36c-2.8,0-5.68-1.92-5.68-5.28c0-3.44,2.72-5.44,5.68-5.44c2.88,0,5.68,2,5.68,5.36z M446.76,94.24c0,3.12-2.72,5.04-5.36,5.04s-5.44-1.76-5.44-4.96s2.64-5.12,5.44-5.12c2.72,0,5.36,1.84,5.36,5.04z M446.28,141.2c0,1.44-0.64,2-2,2l-5.6,0c-1.44,0-2.08-0.56-2.08-2l0-34.96c0-1.36,0.8-1.84,2.08-1.84l5.6,0c1.28,0,2,0.4,2,1.84l0,34.96z M496.08,141.2c0,1.36-0.8,2-1.76,2l-5.2,0c-1.28,0-1.84-0.64-1.92-1.6l-0.16-2.16c-2.24,2.56-6.72,4.72-10.88,4.72c-11.6,0-16.88-9.2-16.88-19.92c0-11.2,6.24-20.96,17.52-20.96c3.6,0,7.36,1.44,9.6,3.76l0-18c0-1.44,0.4-2,1.68-2.16l5.92-0.8c0.08,0,0.72-0.08,0.8-0.08c0.96,0,1.28,0.4,1.28,1.6l0,53.6z M486.4,132.32l0-17.36c-1.6-2.16-4.64-3.92-7.68-3.92c-6.48,0-9.36,6.08-9.36,12.64s2.4,12.64,8.88,12.64c2.96,0,6.56-2,8.16-4z"/><path fill="#"/></svg>